<svg id="Capa_1" data-name="Capa 1" xmlns="http://www.w3.org/2000/svg" xmlns:xlink="http://www.w3.org/1999/xlink" viewBox="0 0 231.43 96.43"><defs><style>.cls-1{fill:none;}.cls-2{clip-path:url(#clip-path);}.cls-3{fill:#fff;}</style><clipPath id="clip-path"><rect class="cls-1" x="39.3" y="32.95" width="159.2" height="38.27"/></clipPath></defs><g id="Grupo_21532" data-name="Grupo 21532"><g class="cls-2"><g id="Grupo_21531" data-name="Grupo 21531"><path id="Trazado_20827" data-name="Trazado 20827" class="cls-3" d="M46.32,63.66q-7,0-7-7.86V35.93a2.33,2.33,0,0,1,2-2.64,2.36,2.36,0,0,1,.65,0,2.33,2.33,0,0,1,2.65,2,2.43,2.43,0,0,1,0,.66V55.55q0,3.78,3.15,3.78l.63,0,.59-.06a.7.7,0,0,1,.8.31,4,4,0,0,1,.21,1.62,2.8,2.8,0,0,1-.42,1.64,1.91,1.91,0,0,1-1.38.71,13.77,13.77,0,0,1-1.81.13"/><path id="Trazado_20828" data-name="Trazado 20828" class="cls-3" d="M61.86,63.66a11.29,11.29,0,0,1-5.55-1.3,9.14,9.14,0,0,1-3.65-3.72A11.85,11.85,0,0,1,51.36,53a11.75,11.75,0,0,1,1.3-5.67,9,9,0,0,1,3.65-3.7,11.18,11.18,0,0,1,5.55-1.3,11.12,11.12,0,0,1,5.54,1.3,9,9,0,0,1,3.66,3.7A11.75,11.75,0,0,1,72.36,53a11.85,11.85,0,0,1-1.3,5.69,9.11,9.11,0,0,1-3.66,3.72,11.23,11.23,0,0,1-5.54,1.3m0-4A4.71,4.71,0,0,0,65.64,58a7.64,7.64,0,0,0,1.43-5,7.57,7.57,0,0,0-1.43-5,5.13,5.13,0,0,0-7.56,0,7.52,7.52,0,0,0-1.43,5,7.64,7.64,0,0,0,1.43,5,4.7,4.7,0,0,0,3.78,1.7"/><path id="Trazado_20829" data-name="Trazado 20829" class="cls-3" d="M86.26,71.22a23.15,23.15,0,0,1-4.39-.42A14.51,14.51,0,0,1,78,69.5a2.08,2.08,0,0,1-1.2-1.28A2.13,2.13,0,0,1,77,66.73a2,2,0,0,1,1-1,1.7,1.7,0,0,1,1.49.06A12.36,12.36,0,0,0,83,67a17.84,17.84,0,0,0,2.83.27c3.76,0,5.63-1.81,5.63-5.42V59a6.49,6.49,0,0,1-2.71,2.73,8.3,8.3,0,0,1-4.05,1,9,9,0,0,1-4.84-1.27,8.52,8.52,0,0,1-3.18-3.6,13.22,13.22,0,0,1,0-10.74,8.61,8.61,0,0,1,3.18-3.56,8.88,8.88,0,0,1,4.84-1.28,8.43,8.43,0,0,1,4,1,6,6,0,0,1,2.64,2.65V45A2.39,2.39,0,0,1,94,42.36a2.31,2.31,0,0,1,2.6,2,2.43,2.43,0,0,1,0,.66V61.18q0,5-2.65,7.52t-7.68,2.52m-.13-12.48A4.79,4.79,0,0,0,90,57.06a6.8,6.8,0,0,0,1.42-4.58A6.72,6.72,0,0,0,90,47.93a5.33,5.33,0,0,0-7.54-.2,1.8,1.8,0,0,0-.19.2,6.68,6.68,0,0,0-1.43,4.55,6.86,6.86,0,0,0,1.43,4.58,4.79,4.79,0,0,0,3.87,1.68"/><path id="Trazado_20830" data-name="Trazado 20830" class="cls-3" d="M111.43,63.66a11.29,11.29,0,0,1-5.55-1.3,9,9,0,0,1-3.65-3.72,11.74,11.74,0,0,1-1.3-5.69,11.53,11.53,0,0,1,1.3-5.67,9,9,0,0,1,3.65-3.7,12.43,12.43,0,0,1,11.09,0,9.09,9.09,0,0,1,3.65,3.7,11.64,11.64,0,0,1,1.3,5.67,11.74,11.74,0,0,1-1.3,5.69A9.14,9.14,0,0,1,117,62.36a11.29,11.29,0,0,1-5.55,1.3m0-4A4.69,4.69,0,0,0,115.2,58a7.59,7.59,0,0,0,1.43-5,7.52,7.52,0,0,0-1.43-5,5.13,5.13,0,0,0-7.25-.31c-.11.1-.21.2-.31.31a7.56,7.56,0,0,0-1.42,5,7.63,7.63,0,0,0,1.42,5,4.71,4.71,0,0,0,3.78,1.7"/><path id="Trazado_20831" data-name="Trazado 20831" class="cls-3" d="M135.45,63.66q-8.14,0-8.15-8.07V46.65h-2.18c-1.4,0-2.1-.66-2.1-2s.7-2,2.1-2h2.18V38.88a2.63,2.63,0,1,1,5.26,0V42.7H137c1.4,0,2.1.66,2.1,2s-.7,2-2.1,2h-4.45V55.3a4.42,4.42,0,0,0,.88,3,3.61,3.61,0,0,0,2.86,1,6,6,0,0,0,1.26-.12,6.44,6.44,0,0,1,1-.17,1,1,0,0,1,.84.31,2.18,2.18,0,0,1,.34,1.45,3.79,3.79,0,0,1-.27,1.49,1.61,1.61,0,0,1-1,.9,11.8,11.8,0,0,1-1.43.32,8.93,8.93,0,0,1-1.55.14"/><path id="Trazado_20832" data-name="Trazado 20832" class="cls-3" d="M145.32,38.5a3.28,3.28,0,0,1-2.29-.74,3,3,0,0,1,0-4.09,3.35,3.35,0,0,1,2.28-.72c2.07,0,3.11.93,3.11,2.77s-1,2.78-3.11,2.78m0,25a2.44,2.44,0,0,1-1.93-.75,3.09,3.09,0,0,1-.68-2.1V45.26c0-1.9.87-2.86,2.6-2.86s2.65,1,2.65,2.86V60.68a3,3,0,0,1-.67,2.1,2.53,2.53,0,0,1-2,.75"/><path id="Trazado_20833" data-name="Trazado 20833" class="cls-3" d="M156,71.13a2.31,2.31,0,0,1-2.6-2,2.36,2.36,0,0,1,0-.65V45c0-1.77.86-2.65,2.57-2.65a2.32,2.32,0,0,1,2.61,2,2.43,2.43,0,0,1,0,.66v.88a6.58,6.58,0,0,1,2.65-2.63,8.07,8.07,0,0,1,4-1,8.51,8.51,0,0,1,4.73,1.3,8.74,8.74,0,0,1,3.17,3.67,13.1,13.1,0,0,1,1.13,5.69,13.25,13.25,0,0,1-1.13,5.69A8.71,8.71,0,0,1,170,62.35a8.55,8.55,0,0,1-4.75,1.3,8.14,8.14,0,0,1-3.93-.94,6.64,6.64,0,0,1-2.66-2.54v8.31a2.35,2.35,0,0,1-2,2.65,2.43,2.43,0,0,1-.66,0m7.77-11.47a4.67,4.67,0,0,0,3.78-1.7,7.63,7.63,0,0,0,1.43-5,7.52,7.52,0,0,0-1.43-5,5.15,5.15,0,0,0-7.26-.3l-.3.3a7.57,7.57,0,0,0-1.43,5A7.63,7.63,0,0,0,160,58a4.67,4.67,0,0,0,3.78,1.7"/><path id="Trazado_20834" data-name="Trazado 20834" class="cls-3" d="M188,63.66a11.23,11.23,0,0,1-5.54-1.3,9.11,9.11,0,0,1-3.66-3.72A11.85,11.85,0,0,1,177.5,53a11.75,11.75,0,0,1,1.3-5.67,9.12,9.12,0,0,1,3.66-3.7,12.43,12.43,0,0,1,11.09,0,9,9,0,0,1,3.65,3.7A11.64,11.64,0,0,1,198.5,53a11.85,11.85,0,0,1-1.3,5.69,9.14,9.14,0,0,1-3.65,3.72,11.4,11.4,0,0,1-5.55,1.3m0-4a4.7,4.7,0,0,0,3.78-1.7,7.66,7.66,0,0,0,1.43-5,7.52,7.52,0,0,0-1.43-5,5.13,5.13,0,0,0-7.25-.31c-.11.1-.21.2-.31.31a7.55,7.55,0,0,0-1.43,5,7.72,7.72,0,0,0,1.43,5,4.71,4.71,0,0,0,3.78,1.7"/></g></g></g></svg>